<svg width="16" height="16" viewBox="0 0 16 16" fill="none" xmlns="http://www.w3.org/2000/svg">
<path d="M0 8C0 3.58172 3.58172 0 8 0C12.4183 0 16 3.58172 16 8C16 12.4183 12.4183 16 8 16C3.58172 16 0 12.4183 0 8Z" fill="white"/>
<path d="M9.15169 10.2062H7.20391L6.4248 2H9.9308L9.15169 10.2062Z" fill="#FE4A54"/>
<path d="M8.17795 14.1877C9.00626 14.1877 9.67774 13.4965 9.67774 12.6439C9.67774 11.7913 9.00626 11.1002 8.17795 11.1002C7.34964 11.1002 6.67817 11.7913 6.67817 12.6439C6.67817 13.4965 7.34964 14.1877 8.17795 14.1877Z" fill="#FE4A54"/>
</svg>
