<svg width="455" height="932" viewBox="0 0 455 932" fill="none" xmlns="http://www.w3.org/2000/svg">
<g clip-path="url(#clip0_2_571)" filter="url(#filter0_d_2_571)">
<rect width="375" height="812" fill="#010A43"/>
<path d="M256.945 337.751C309.327 339.838 387.067 304.762 387.067 304.762C387.067 304.762 425.811 246.031 439.15 203.672C457.41 145.687 474.399 104.118 450.106 48.3913C423.989 -11.52 378.092 -31.8246 315.721 -51.3526C276.189 -63.7301 210.109 -61.2512 210.109 -61.2512L-161.987 238.796C-161.987 238.796 -94.6131 325.727 -32.6247 332.313C25.8484 338.524 48.2921 276.818 107.091 276.173C170.357 275.48 193.725 335.231 256.945 337.751Z" fill="#060E40"/>
<path d="M256.945 337.751C309.327 339.838 387.067 304.762 387.067 304.762C387.067 304.762 425.811 246.031 439.15 203.672C457.41 145.687 474.399 104.118 450.106 48.3913C423.989 -11.52 378.092 -31.8246 315.721 -51.3526C276.189 -63.7301 210.109 -61.2512 210.109 -61.2512L-161.987 238.796C-161.987 238.796 -94.6131 325.727 -32.6247 332.313C25.8484 338.524 48.2921 276.818 107.091 276.173C170.357 275.48 193.725 335.231 256.945 337.751Z" fill="#030E4A" fill-opacity="0.8"/>
</g>
<defs>
<filter id="filter0_d_2_571" x="-80" y="-40" width="535" height="972" filterUnits="userSpaceOnUse" color-interpolation-filters="sRGB">
<feFlood flood-opacity="0" result="BackgroundImageFix"/>
<feColorMatrix in="SourceAlpha" type="matrix" values="0 0 0 0 0 0 0 0 0 0 0 0 0 0 0 0 0 0 127 0" result="hardAlpha"/>
<feOffset dy="40"/>
<feGaussianBlur stdDeviation="40"/>
<feColorMatrix type="matrix" values="0 0 0 0 0.00392157 0 0 0 0 0.0392157 0 0 0 0 0.262745 0 0 0 0.2 0"/>
<feBlend mode="normal" in2="BackgroundImageFix" result="effect1_dropShadow_2_571"/>
<feBlend mode="normal" in="SourceGraphic" in2="effect1_dropShadow_2_571" result="shape"/>
</filter>
<clipPath id="clip0_2_571">
<rect width="375" height="812" fill="white"/>
</clipPath>
</defs>
</svg>
