<svg width="16" height="16" viewBox="0 0 16 16" fill="none" xmlns="http://www.w3.org/2000/svg">
<path d="M0 8C0 3.58172 3.58172 0 8 0C12.4183 0 16 3.58172 16 8C16 12.4183 12.4183 16 8 16C3.58172 16 0 12.4183 0 8Z" fill="white"/>
<path d="M8.5814 8.35004V9.60628C8.07624 9.41394 7.5356 9.35495 7.00488 9.43425C6.47416 9.51355 5.96886 9.72883 5.5314 10.062C5.09395 10.3952 4.73712 10.8366 4.49088 11.349C4.24464 11.8615 4.11618 12.4301 4.11628 13.0072L3 13.0066C2.99983 12.2726 3.15568 11.5483 3.45561 10.8892C3.75554 10.2301 4.19159 9.65373 4.73035 9.20419C5.26911 8.75464 5.89628 8.44389 6.56381 8.29573C7.23133 8.14757 7.92149 8.16654 8.5814 8.35004ZM7.46512 7.5975C5.61488 7.5975 4.11628 5.98361 4.11628 3.99106C4.11628 1.9985 5.61488 0.384615 7.46512 0.384615C9.31535 0.384615 10.814 1.9985 10.814 3.99106C10.814 5.98361 9.31535 7.5975 7.46512 7.5975ZM7.46512 6.39535C8.69861 6.39535 9.69768 5.31943 9.69768 3.99106C9.69768 2.66268 8.69861 1.58676 7.46512 1.58676C6.23163 1.58676 5.23256 2.66268 5.23256 3.99106C5.23256 5.31943 6.23163 6.39535 7.46512 6.39535ZM11.9302 10.0018H13.6047V11.2039H11.9302V13.3077L9.13954 10.6029L11.9302 7.89803V10.0018Z" fill="#1DC7AC"/>
</svg>
