<svg width="16" height="16" viewBox="0 0 16 16" fill="none" xmlns="http://www.w3.org/2000/svg">
<path d="M0 8C0 3.58172 3.58172 0 8 0C12.4183 0 16 3.58172 16 8C16 12.4183 12.4183 16 8 16C3.58172 16 0 12.4183 0 8Z" fill="white"/>
<path d="M7.57646 8.35019V9.60643C7.10192 9.41409 6.59405 9.3551 6.09549 9.4344C5.59694 9.5137 5.12226 9.72898 4.71132 10.0622C4.30038 10.3954 3.96518 10.8367 3.73386 11.3492C3.50254 11.8617 3.38186 12.4303 3.38196 13.0073L2.33333 13.0067C2.33317 12.2727 2.47958 11.5484 2.76133 10.8894C3.04308 10.2303 3.45271 9.65388 3.95882 9.20434C4.46493 8.75479 5.05409 8.44404 5.68115 8.29588C6.30822 8.14772 6.95655 8.16669 7.57646 8.35019ZM6.52784 7.59765C4.78974 7.59765 3.38196 5.98376 3.38196 3.99121C3.38196 1.99865 4.78974 0.384766 6.52784 0.384766C8.26594 0.384766 9.67372 1.99865 9.67372 3.99121C9.67372 5.98376 8.26594 7.59765 6.52784 7.59765ZM6.52784 6.3955C7.68657 6.3955 8.62509 5.31958 8.62509 3.99121C8.62509 2.66283 7.68657 1.58691 6.52784 1.58691C5.36911 1.58691 4.43059 2.66283 4.43059 3.99121C4.43059 5.31958 5.36911 6.3955 6.52784 6.3955ZM12.197 10.5L12.2485 10.8384L12.197 11V10.5Z" fill="#FAAD39"/>
<path d="M10.5 11V13L13 10.5L10.5 8V10H9V11H10.5Z" fill="#FAAD39"/>
</svg>
